<mxfile host="app.diagrams.net" agent="Mozilla/5.0 (X11; Linux x86_64) AppleWebKit/537.36 (KHTML, like Gecko) Chrome/130.0.0.0 Safari/537.36" version="24.8.6">
  <diagram name="Página-1" id="kyZmNTn_4bfn__WPmsEL">
    <mxGraphModel dx="1423" dy="621" grid="1" gridSize="10" guides="1" tooltips="1" connect="1" arrows="1" fold="1" page="1" pageScale="1" pageWidth="827" pageHeight="1169" math="0" shadow="0">
      <root>
        <mxCell id="0" />
        <mxCell id="1" parent="0" />
        <mxCell id="FP3VzrqA_hdOQgKFFTKv-2" value="Usuario" style="shape=umlActor;verticalLabelPosition=bottom;verticalAlign=top;html=1;outlineConnect=0;" vertex="1" parent="1">
          <mxGeometry x="86" y="58" width="30" height="60" as="geometry" />
        </mxCell>
        <mxCell id="FP3VzrqA_hdOQgKFFTKv-5" value="Key-City" style="rounded=0;whiteSpace=wrap;html=1;fillColor=#d5e8d4;strokeColor=#82b366;" vertex="1" parent="1">
          <mxGeometry x="162" y="80" width="100" height="38" as="geometry" />
        </mxCell>
        <mxCell id="FP3VzrqA_hdOQgKFFTKv-6" value="Centurión" style="rounded=0;whiteSpace=wrap;html=1;fillColor=#e1d5e7;strokeColor=#9673a6;" vertex="1" parent="1">
          <mxGeometry x="332" y="80" width="100" height="38" as="geometry" />
        </mxCell>
        <mxCell id="FP3VzrqA_hdOQgKFFTKv-7" value="API" style="rounded=0;whiteSpace=wrap;html=1;fillColor=#fff2cc;strokeColor=#d6b656;" vertex="1" parent="1">
          <mxGeometry x="502" y="80" width="100" height="38" as="geometry" />
        </mxCell>
        <mxCell id="FP3VzrqA_hdOQgKFFTKv-8" value="Base de datos" style="rounded=0;whiteSpace=wrap;html=1;fillColor=#f5f5f5;fontColor=#333333;strokeColor=#666666;" vertex="1" parent="1">
          <mxGeometry x="660" y="80" width="100" height="38" as="geometry" />
        </mxCell>
        <mxCell id="FP3VzrqA_hdOQgKFFTKv-9" value="" style="endArrow=none;html=1;rounded=0;entryX=0.5;entryY=1;entryDx=0;entryDy=0;exitX=0.5;exitY=0;exitDx=0;exitDy=0;" edge="1" parent="1" source="FP3VzrqA_hdOQgKFFTKv-54" target="FP3VzrqA_hdOQgKFFTKv-5">
          <mxGeometry width="50" height="50" relative="1" as="geometry">
            <mxPoint x="210" y="910" as="sourcePoint" />
            <mxPoint x="420" y="200" as="targetPoint" />
          </mxGeometry>
        </mxCell>
        <mxCell id="FP3VzrqA_hdOQgKFFTKv-10" value="" style="endArrow=none;html=1;rounded=0;exitX=0.5;exitY=0;exitDx=0;exitDy=0;" edge="1" parent="1" source="FP3VzrqA_hdOQgKFFTKv-55" target="FP3VzrqA_hdOQgKFFTKv-6">
          <mxGeometry width="50" height="50" relative="1" as="geometry">
            <mxPoint x="380" y="840" as="sourcePoint" />
            <mxPoint x="382" y="120" as="targetPoint" />
          </mxGeometry>
        </mxCell>
        <mxCell id="FP3VzrqA_hdOQgKFFTKv-11" value="" style="endArrow=none;html=1;rounded=0;exitX=0.5;exitY=0;exitDx=0;exitDy=0;" edge="1" parent="1" source="FP3VzrqA_hdOQgKFFTKv-56" target="FP3VzrqA_hdOQgKFFTKv-7">
          <mxGeometry width="50" height="50" relative="1" as="geometry">
            <mxPoint x="550" y="910" as="sourcePoint" />
            <mxPoint x="553" y="118" as="targetPoint" />
          </mxGeometry>
        </mxCell>
        <mxCell id="FP3VzrqA_hdOQgKFFTKv-12" value="" style="endArrow=none;html=1;rounded=0;entryX=0.5;entryY=1;entryDx=0;entryDy=0;exitX=0.5;exitY=0;exitDx=0;exitDy=0;" edge="1" parent="1" source="FP3VzrqA_hdOQgKFFTKv-57">
          <mxGeometry width="50" height="50" relative="1" as="geometry">
            <mxPoint x="710" y="940" as="sourcePoint" />
            <mxPoint x="712" y="118" as="targetPoint" />
          </mxGeometry>
        </mxCell>
        <mxCell id="FP3VzrqA_hdOQgKFFTKv-13" value="" style="endArrow=none;html=1;rounded=0;entryX=0.5;entryY=1;entryDx=0;entryDy=0;exitX=0.5;exitY=0;exitDx=0;exitDy=0;exitPerimeter=0;" edge="1" parent="1" source="FP3VzrqA_hdOQgKFFTKv-53">
          <mxGeometry width="50" height="50" relative="1" as="geometry">
            <mxPoint x="100" y="840" as="sourcePoint" />
            <mxPoint x="102" y="140" as="targetPoint" />
          </mxGeometry>
        </mxCell>
        <mxCell id="FP3VzrqA_hdOQgKFFTKv-1" value="1. Proceso de login" style="rounded=0;whiteSpace=wrap;html=1;fillColor=#dae8fc;strokeColor=#6c8ebf;" vertex="1" parent="1">
          <mxGeometry x="80" y="140" width="680" height="20" as="geometry" />
        </mxCell>
        <mxCell id="FP3VzrqA_hdOQgKFFTKv-14" value="" style="endArrow=classic;html=1;rounded=0;" edge="1" parent="1">
          <mxGeometry width="50" height="50" relative="1" as="geometry">
            <mxPoint x="101" y="213" as="sourcePoint" />
            <mxPoint x="211" y="213" as="targetPoint" />
          </mxGeometry>
        </mxCell>
        <mxCell id="FP3VzrqA_hdOQgKFFTKv-15" value="1.1 Autenticación y proyecto" style="text;html=1;align=center;verticalAlign=middle;whiteSpace=wrap;rounded=0;" vertex="1" parent="1">
          <mxGeometry x="110" y="170" width="90" height="30" as="geometry" />
        </mxCell>
        <mxCell id="FP3VzrqA_hdOQgKFFTKv-17" value="" style="endArrow=classic;html=1;rounded=0;" edge="1" parent="1">
          <mxGeometry width="50" height="50" relative="1" as="geometry">
            <mxPoint x="212" y="240" as="sourcePoint" />
            <mxPoint x="552" y="240" as="targetPoint" />
          </mxGeometry>
        </mxCell>
        <mxCell id="FP3VzrqA_hdOQgKFFTKv-18" value="1.2 POST /auth { email }" style="text;html=1;align=center;verticalAlign=middle;whiteSpace=wrap;rounded=0;" vertex="1" parent="1">
          <mxGeometry x="319" y="213" width="148" height="30" as="geometry" />
        </mxCell>
        <mxCell id="FP3VzrqA_hdOQgKFFTKv-19" value="" style="endArrow=classic;html=1;rounded=0;" edge="1" parent="1">
          <mxGeometry width="50" height="50" relative="1" as="geometry">
            <mxPoint x="553" y="270" as="sourcePoint" />
            <mxPoint x="713" y="270" as="targetPoint" />
          </mxGeometry>
        </mxCell>
        <mxCell id="FP3VzrqA_hdOQgKFFTKv-20" value="1.3 Consulta y valida usuario" style="text;html=1;align=center;verticalAlign=middle;whiteSpace=wrap;rounded=0;" vertex="1" parent="1">
          <mxGeometry x="560" y="237" width="148" height="30" as="geometry" />
        </mxCell>
        <mxCell id="FP3VzrqA_hdOQgKFFTKv-21" value="" style="endArrow=classic;html=1;rounded=0;" edge="1" parent="1">
          <mxGeometry width="50" height="50" relative="1" as="geometry">
            <mxPoint x="712" y="303" as="sourcePoint" />
            <mxPoint x="552" y="303" as="targetPoint" />
          </mxGeometry>
        </mxCell>
        <mxCell id="FP3VzrqA_hdOQgKFFTKv-22" value="1.4 Retorna dato" style="text;html=1;align=center;verticalAlign=middle;whiteSpace=wrap;rounded=0;" vertex="1" parent="1">
          <mxGeometry x="560" y="277" width="148" height="30" as="geometry" />
        </mxCell>
        <mxCell id="FP3VzrqA_hdOQgKFFTKv-23" value="" style="endArrow=classic;html=1;rounded=0;" edge="1" parent="1">
          <mxGeometry width="50" height="50" relative="1" as="geometry">
            <mxPoint x="552" y="340" as="sourcePoint" />
            <mxPoint x="212" y="340" as="targetPoint" />
          </mxGeometry>
        </mxCell>
        <mxCell id="FP3VzrqA_hdOQgKFFTKv-24" value="1.5 Retorna código de estado HTTP (200 - 404)" style="text;html=1;align=center;verticalAlign=middle;whiteSpace=wrap;rounded=0;" vertex="1" parent="1">
          <mxGeometry x="244" y="313" width="290" height="30" as="geometry" />
        </mxCell>
        <mxCell id="FP3VzrqA_hdOQgKFFTKv-26" value="" style="endArrow=classic;html=1;rounded=0;" edge="1" parent="1">
          <mxGeometry width="50" height="50" relative="1" as="geometry">
            <mxPoint x="211" y="395" as="sourcePoint" />
            <mxPoint x="381" y="395" as="targetPoint" />
          </mxGeometry>
        </mxCell>
        <mxCell id="FP3VzrqA_hdOQgKFFTKv-27" value="1.6 Redirección&amp;nbsp;&lt;div&gt;/Sesion?Email=&amp;amp;Proyecto=&lt;/div&gt;" style="text;html=1;align=center;verticalAlign=middle;whiteSpace=wrap;rounded=0;" vertex="1" parent="1">
          <mxGeometry x="211" y="362" width="160" height="30" as="geometry" />
        </mxCell>
        <mxCell id="FP3VzrqA_hdOQgKFFTKv-28" value="2. Visualización de controladores" style="rounded=0;whiteSpace=wrap;html=1;fillColor=#dae8fc;strokeColor=#6c8ebf;" vertex="1" parent="1">
          <mxGeometry x="80" y="411" width="680" height="20" as="geometry" />
        </mxCell>
        <mxCell id="FP3VzrqA_hdOQgKFFTKv-29" value="" style="endArrow=classic;html=1;rounded=0;" edge="1" parent="1">
          <mxGeometry width="50" height="50" relative="1" as="geometry">
            <mxPoint x="382" y="490" as="sourcePoint" />
            <mxPoint x="550" y="490" as="targetPoint" />
          </mxGeometry>
        </mxCell>
        <mxCell id="FP3VzrqA_hdOQgKFFTKv-30" value="2.1 POST /info/controladores&amp;nbsp;&lt;div&gt;{ Email, Proyecto }&lt;/div&gt;" style="text;html=1;align=center;verticalAlign=middle;whiteSpace=wrap;rounded=0;" vertex="1" parent="1">
          <mxGeometry x="395" y="446" width="137" height="30" as="geometry" />
        </mxCell>
        <mxCell id="FP3VzrqA_hdOQgKFFTKv-32" value="" style="endArrow=classic;html=1;rounded=0;" edge="1" parent="1">
          <mxGeometry width="50" height="50" relative="1" as="geometry">
            <mxPoint x="553" y="514" as="sourcePoint" />
            <mxPoint x="713" y="514" as="targetPoint" />
          </mxGeometry>
        </mxCell>
        <mxCell id="FP3VzrqA_hdOQgKFFTKv-33" value="2.2 Consulta de datos" style="text;html=1;align=center;verticalAlign=middle;whiteSpace=wrap;rounded=0;" vertex="1" parent="1">
          <mxGeometry x="559" y="488" width="148" height="30" as="geometry" />
        </mxCell>
        <mxCell id="FP3VzrqA_hdOQgKFFTKv-34" value="" style="endArrow=classic;html=1;rounded=0;" edge="1" parent="1">
          <mxGeometry width="50" height="50" relative="1" as="geometry">
            <mxPoint x="712" y="550" as="sourcePoint" />
            <mxPoint x="552" y="550" as="targetPoint" />
          </mxGeometry>
        </mxCell>
        <mxCell id="FP3VzrqA_hdOQgKFFTKv-35" value="2.3 Retorna datos" style="text;html=1;align=center;verticalAlign=middle;whiteSpace=wrap;rounded=0;" vertex="1" parent="1">
          <mxGeometry x="557" y="524" width="148" height="27" as="geometry" />
        </mxCell>
        <mxCell id="FP3VzrqA_hdOQgKFFTKv-36" value="2.4 Retorna JSON&amp;nbsp;&lt;div&gt;{ Usuario, Nombre, Rol, Ciudad, Proyecto, Controladores } (200 - 404)&lt;/div&gt;" style="text;html=1;align=center;verticalAlign=middle;whiteSpace=wrap;rounded=0;" vertex="1" parent="1">
          <mxGeometry x="389" y="550" width="159" height="27" as="geometry" />
        </mxCell>
        <mxCell id="FP3VzrqA_hdOQgKFFTKv-37" value="" style="endArrow=classic;html=1;rounded=0;" edge="1" parent="1">
          <mxGeometry width="50" height="50" relative="1" as="geometry">
            <mxPoint x="552" y="600" as="sourcePoint" />
            <mxPoint x="380" y="600" as="targetPoint" />
          </mxGeometry>
        </mxCell>
        <mxCell id="FP3VzrqA_hdOQgKFFTKv-38" value="3. Visualización de monitoreo" style="rounded=0;whiteSpace=wrap;html=1;fillColor=#dae8fc;strokeColor=#6c8ebf;" vertex="1" parent="1">
          <mxGeometry x="80" y="680" width="680" height="20" as="geometry" />
        </mxCell>
        <mxCell id="FP3VzrqA_hdOQgKFFTKv-39" value="3.2 GET /info/monitoreo/{Matricula}" style="text;html=1;align=center;verticalAlign=middle;whiteSpace=wrap;rounded=0;" vertex="1" parent="1">
          <mxGeometry x="388" y="726" width="150" height="30" as="geometry" />
        </mxCell>
        <mxCell id="FP3VzrqA_hdOQgKFFTKv-40" value="" style="endArrow=classic;html=1;rounded=0;" edge="1" parent="1">
          <mxGeometry width="50" height="50" relative="1" as="geometry">
            <mxPoint x="382" y="760" as="sourcePoint" />
            <mxPoint x="552" y="760" as="targetPoint" />
          </mxGeometry>
        </mxCell>
        <mxCell id="FP3VzrqA_hdOQgKFFTKv-41" value="3.2 Consulta de datos" style="text;html=1;align=center;verticalAlign=middle;whiteSpace=wrap;rounded=0;" vertex="1" parent="1">
          <mxGeometry x="555" y="760" width="148" height="30" as="geometry" />
        </mxCell>
        <mxCell id="FP3VzrqA_hdOQgKFFTKv-42" value="" style="endArrow=classic;html=1;rounded=0;" edge="1" parent="1">
          <mxGeometry width="50" height="50" relative="1" as="geometry">
            <mxPoint x="553" y="786" as="sourcePoint" />
            <mxPoint x="713" y="786" as="targetPoint" />
          </mxGeometry>
        </mxCell>
        <mxCell id="FP3VzrqA_hdOQgKFFTKv-43" value="" style="endArrow=classic;html=1;rounded=0;" edge="1" parent="1">
          <mxGeometry width="50" height="50" relative="1" as="geometry">
            <mxPoint x="712" y="824" as="sourcePoint" />
            <mxPoint x="552" y="824" as="targetPoint" />
          </mxGeometry>
        </mxCell>
        <mxCell id="FP3VzrqA_hdOQgKFFTKv-44" value="3.3 Retorna datos" style="text;html=1;align=center;verticalAlign=middle;whiteSpace=wrap;rounded=0;" vertex="1" parent="1">
          <mxGeometry x="557" y="798" width="148" height="27" as="geometry" />
        </mxCell>
        <mxCell id="FP3VzrqA_hdOQgKFFTKv-45" value="" style="endArrow=classic;html=1;rounded=0;" edge="1" parent="1">
          <mxGeometry width="50" height="50" relative="1" as="geometry">
            <mxPoint x="553" y="860" as="sourcePoint" />
            <mxPoint x="383" y="860" as="targetPoint" />
          </mxGeometry>
        </mxCell>
        <mxCell id="FP3VzrqA_hdOQgKFFTKv-46" value="3.4 Retorna JSON&amp;nbsp;&lt;div&gt;{ Estado, Programacion } (200 - 404)&lt;/div&gt;" style="text;html=1;align=center;verticalAlign=middle;whiteSpace=wrap;rounded=0;" vertex="1" parent="1">
          <mxGeometry x="393" y="819" width="148" height="27" as="geometry" />
        </mxCell>
        <mxCell id="FP3VzrqA_hdOQgKFFTKv-49" value="" style="endArrow=classic;html=1;rounded=0;" edge="1" parent="1">
          <mxGeometry width="50" height="50" relative="1" as="geometry">
            <mxPoint x="102" y="730" as="sourcePoint" />
            <mxPoint x="380" y="730" as="targetPoint" />
          </mxGeometry>
        </mxCell>
        <mxCell id="FP3VzrqA_hdOQgKFFTKv-50" value="3.1 Indicador de controlador" style="text;html=1;align=center;verticalAlign=middle;whiteSpace=wrap;rounded=0;" vertex="1" parent="1">
          <mxGeometry x="130" y="703" width="170" height="30" as="geometry" />
        </mxCell>
        <mxCell id="FP3VzrqA_hdOQgKFFTKv-53" value="Usuario" style="shape=umlActor;verticalLabelPosition=bottom;verticalAlign=top;html=1;outlineConnect=0;" vertex="1" parent="1">
          <mxGeometry x="85" y="945" width="30" height="60" as="geometry" />
        </mxCell>
        <mxCell id="FP3VzrqA_hdOQgKFFTKv-54" value="Key-City" style="rounded=0;whiteSpace=wrap;html=1;fillColor=#d5e8d4;strokeColor=#82b366;" vertex="1" parent="1">
          <mxGeometry x="161" y="945" width="100" height="38" as="geometry" />
        </mxCell>
        <mxCell id="FP3VzrqA_hdOQgKFFTKv-55" value="Centurión" style="rounded=0;whiteSpace=wrap;html=1;fillColor=#e1d5e7;strokeColor=#9673a6;" vertex="1" parent="1">
          <mxGeometry x="332" y="945" width="100" height="38" as="geometry" />
        </mxCell>
        <mxCell id="FP3VzrqA_hdOQgKFFTKv-56" value="API" style="rounded=0;whiteSpace=wrap;html=1;fillColor=#fff2cc;strokeColor=#d6b656;" vertex="1" parent="1">
          <mxGeometry x="503" y="945" width="100" height="38" as="geometry" />
        </mxCell>
        <mxCell id="FP3VzrqA_hdOQgKFFTKv-57" value="Base de datos" style="rounded=0;whiteSpace=wrap;html=1;fillColor=#f5f5f5;fontColor=#333333;strokeColor=#666666;" vertex="1" parent="1">
          <mxGeometry x="660" y="945" width="100" height="38" as="geometry" />
        </mxCell>
        <mxCell id="FP3VzrqA_hdOQgKFFTKv-58" value="" style="endArrow=classic;html=1;rounded=0;" edge="1" parent="1">
          <mxGeometry width="50" height="50" relative="1" as="geometry">
            <mxPoint x="381" y="634" as="sourcePoint" />
            <mxPoint x="212" y="634" as="targetPoint" />
          </mxGeometry>
        </mxCell>
        <mxCell id="FP3VzrqA_hdOQgKFFTKv-59" value="2.5 Interfaz centurión&lt;div&gt;controladores&lt;/div&gt;" style="text;html=1;align=center;verticalAlign=middle;whiteSpace=wrap;rounded=0;" vertex="1" parent="1">
          <mxGeometry x="216" y="602" width="159" height="27" as="geometry" />
        </mxCell>
        <mxCell id="FP3VzrqA_hdOQgKFFTKv-60" value="" style="endArrow=classic;html=1;rounded=0;" edge="1" parent="1">
          <mxGeometry width="50" height="50" relative="1" as="geometry">
            <mxPoint x="210" y="664" as="sourcePoint" />
            <mxPoint x="100" y="664" as="targetPoint" />
          </mxGeometry>
        </mxCell>
        <mxCell id="FP3VzrqA_hdOQgKFFTKv-61" value="2.6 Visualicación&amp;nbsp;&lt;div&gt;centurión&lt;/div&gt;&lt;div&gt;controladores&lt;/div&gt;" style="text;html=1;align=center;verticalAlign=middle;whiteSpace=wrap;rounded=0;" vertex="1" parent="1">
          <mxGeometry x="106" y="624" width="105" height="27" as="geometry" />
        </mxCell>
        <mxCell id="FP3VzrqA_hdOQgKFFTKv-62" value="" style="endArrow=classic;html=1;rounded=0;" edge="1" parent="1">
          <mxGeometry width="50" height="50" relative="1" as="geometry">
            <mxPoint x="382" y="896" as="sourcePoint" />
            <mxPoint x="211" y="896" as="targetPoint" />
          </mxGeometry>
        </mxCell>
        <mxCell id="FP3VzrqA_hdOQgKFFTKv-63" value="3.5 Interfaz centurión monitoreo" style="text;html=1;align=center;verticalAlign=middle;whiteSpace=wrap;rounded=0;" vertex="1" parent="1">
          <mxGeometry x="221" y="862" width="145" height="30" as="geometry" />
        </mxCell>
        <mxCell id="FP3VzrqA_hdOQgKFFTKv-64" value="" style="endArrow=classic;html=1;rounded=0;" edge="1" parent="1">
          <mxGeometry width="50" height="50" relative="1" as="geometry">
            <mxPoint x="210" y="930" as="sourcePoint" />
            <mxPoint x="100" y="930" as="targetPoint" />
          </mxGeometry>
        </mxCell>
        <mxCell id="FP3VzrqA_hdOQgKFFTKv-66" value="3.6 Visualización&amp;nbsp;&lt;div&gt;centurión&amp;nbsp;&lt;/div&gt;&lt;div&gt;monitoreo&lt;/div&gt;" style="text;html=1;align=center;verticalAlign=middle;whiteSpace=wrap;rounded=0;" vertex="1" parent="1">
          <mxGeometry x="82" y="889" width="145" height="30" as="geometry" />
        </mxCell>
      </root>
    </mxGraphModel>
  </diagram>
</mxfile>
